<?xml version="1.0" standalone="no"?>
<!DOCTYPE svg PUBLIC "-//W3C//DTD SVG 20010904//EN"
 "http://www.w3.org/TR/2001/REC-SVG-20010904/DTD/svg10.dtd">
<svg version="1.0" xmlns="http://www.w3.org/2000/svg"
 width="928.000000pt" height="928.000000pt" viewBox="0 0 928.000000 928.000000"
 preserveAspectRatio="xMidYMid meet">
<metadata>
Created by potrace 1.14, written by Peter Selinger 2001-2017
</metadata>
<g transform="translate(0.000000,928.000000) scale(0.100000,-0.100000)"
fill="#000000" stroke="none">
<path d="M4420 8400 c0 -3 -28 -5 -63 -6 -63 -1 -206 -11 -264 -19 -18 -3 -50
-7 -70 -10 -33 -5 -83 -13 -183 -32 -22 -4 -85 -17 -132 -29 -10 -2 -28 -6
-40 -9 -43 -8 -183 -47 -213 -58 -16 -7 -32 -12 -35 -12 -33 -4 -282 -99 -405
-155 -33 -15 -64 -29 -70 -31 -5 -2 -44 -22 -85 -44 -41 -21 -78 -38 -82 -37
-5 1 -8 -2 -8 -8 0 -5 -4 -10 -10 -10 -5 0 -60 -31 -122 -68 -180 -110 -218
-134 -218 -143 0 -5 -7 -9 -15 -9 -8 0 -15 -4 -15 -10 0 -5 -5 -10 -11 -10
-11 0 -225 -168 -299 -234 -62 -56 -287 -282 -330 -331 -49 -57 -108 -129
-166 -205 -51 -66 -204 -288 -204 -295 0 -3 -15 -28 -33 -57 -19 -29 -47 -78
-62 -108 -16 -30 -36 -63 -45 -74 -8 -10 -14 -20 -12 -22 1 -2 -14 -36 -33
-75 -19 -39 -35 -77 -35 -85 0 -8 -4 -14 -10 -14 -5 0 -10 -7 -10 -15 0 -8 -9
-30 -20 -50 -11 -19 -20 -38 -20 -43 0 -4 -15 -47 -34 -97 -19 -49 -40 -108
-46 -130 -7 -22 -17 -45 -22 -51 -5 -7 -8 -16 -7 -20 1 -5 -1 -16 -4 -24 -8
-19 -47 -157 -53 -190 -3 -14 -10 -43 -15 -65 -6 -22 -12 -49 -14 -60 -2 -11
-9 -45 -15 -75 -6 -30 -13 -68 -15 -85 -3 -16 -7 -41 -10 -55 -27 -149 -40
-336 -39 -575 1 -239 11 -383 39 -560 2 -16 7 -43 9 -60 4 -30 37 -185 55
-257 5 -21 6 -38 3 -38 -3 0 -1 -5 6 -12 7 -7 12 -19 12 -27 0 -31 74 -259
130 -401 51 -130 58 -146 133 -300 65 -133 155 -290 172 -302 6 -5 6 -8 0 -8
-7 0 -7 -3 0 -8 6 -4 37 -47 69 -97 75 -114 189 -265 244 -321 6 -7 12 -15 12
-18 0 -23 353 -372 464 -458 16 -13 37 -30 46 -38 8 -8 34 -28 55 -44 22 -17
42 -32 45 -35 3 -4 12 -10 21 -16 43 -28 266 -176 276 -185 7 -6 14 -10 17
-10 2 0 37 -19 78 -43 108 -64 328 -169 453 -217 61 -23 119 -45 130 -50 107
-43 274 -91 475 -135 139 -31 155 -34 285 -50 33 -3 71 -9 85 -11 106 -19 570
-25 725 -10 184 17 232 24 315 42 14 3 39 6 55 8 107 10 596 148 630 178 5 4
15 8 21 8 7 0 25 5 41 12 15 6 30 12 33 13 3 0 19 8 36 18 17 9 34 13 38 10 3
-4 6 -1 6 5 0 7 7 12 15 12 8 0 23 4 33 9 9 6 64 33 122 62 159 79 419 232
495 292 6 4 37 28 70 52 33 25 65 48 70 52 87 66 303 261 383 345 119 125 146
156 171 188 14 19 34 44 45 55 10 11 52 65 92 120 41 55 81 107 89 116 8 9 15
19 15 24 0 4 11 23 25 41 14 18 25 35 25 39 0 6 39 65 50 75 3 3 11 16 17 30
7 14 26 48 42 75 95 161 229 460 288 645 13 41 27 82 30 90 3 8 7 20 8 25 2 6
12 45 24 88 13 43 24 87 26 98 2 12 6 28 9 37 3 9 7 28 10 42 3 14 7 36 10 50
24 112 45 243 61 385 26 237 21 608 -10 837 -4 29 -9 64 -11 78 -5 41 -14 91
-30 170 -9 41 -17 84 -19 95 -1 11 -3 20 -5 20 -2 0 -6 19 -14 66 -3 23 -31
122 -44 159 -3 8 -6 22 -8 30 -2 8 -13 42 -24 75 -11 33 -22 65 -24 70 -2 6
-6 19 -11 30 -4 11 -21 56 -37 100 -16 44 -37 96 -45 115 -29 65 -177 365
-183 370 -3 3 -25 39 -49 80 -54 92 -191 294 -202 298 -5 2 -9 8 -9 13 0 5
-38 56 -84 112 l-84 103 113 112 c63 62 119 126 127 142 7 17 15 30 18 30 8 0
12 36 13 100 0 64 -10 114 -24 118 -5 2 -9 9 -9 16 0 21 -72 88 -117 108 -84
37 -177 31 -253 -18 -19 -12 -82 -69 -140 -127 l-104 -105 -61 49 c-79 66 -83
69 -130 104 -22 17 -46 36 -53 43 -7 6 -18 12 -23 12 -5 0 -17 8 -27 18 -18
18 -183 126 -242 158 -19 10 -36 22 -38 27 -2 4 -9 7 -17 7 -7 0 -18 7 -25 15
-7 8 -16 13 -20 10 -5 -3 -10 -1 -12 3 -2 8 -263 138 -323 162 -11 4 -36 15
-55 23 -107 45 -393 141 -450 151 -14 3 -25 5 -25 6 0 1 -8 3 -17 5 -9 2 -48
11 -85 20 -37 10 -79 19 -93 21 -14 2 -45 9 -70 14 -25 5 -62 12 -82 15 -46 6
-95 13 -145 20 -52 8 -168 17 -225 18 -27 1 -48 5 -48 10 0 5 -7 4 -15 -3 -8
-7 -15 -9 -15 -4 0 5 -63 9 -140 9 -77 0 -140 -2 -140 -5z m425 -544 c17 -3
53 -8 80 -10 71 -7 136 -16 160 -21 11 -2 45 -9 75 -14 77 -15 94 -19 180 -40
65 -16 68 -17 145 -41 39 -11 79 -25 90 -30 16 -7 86 -31 105 -35 8 -2 58 -23
149 -62 129 -55 383 -189 389 -205 2 -4 10 -8 18 -8 8 0 14 -3 14 -8 0 -4 13
-13 29 -20 16 -7 42 -24 57 -37 16 -14 34 -25 41 -25 6 0 13 -3 15 -7 2 -5 46
-40 99 -80 52 -39 101 -79 109 -88 12 -14 -7 -37 -171 -201 -101 -101 -190
-184 -197 -184 -7 0 -15 7 -18 15 -4 8 -12 15 -20 15 -8 0 -14 4 -14 8 0 4
-20 21 -46 37 -25 16 -57 39 -72 52 -15 13 -33 23 -39 23 -7 0 -13 4 -13 8 0
5 -12 15 -27 23 -16 8 -47 26 -69 42 -23 15 -46 27 -52 27 -5 0 -15 7 -22 15
-7 9 -15 13 -17 11 -3 -2 -26 8 -51 23 -26 15 -92 46 -147 70 -55 23 -109 46
-120 51 -42 18 -270 91 -295 94 -8 1 -28 6 -45 10 -122 30 -138 33 -285 51
-14 2 -25 4 -25 5 0 11 -402 17 -525 7 -181 -15 -440 -66 -570 -112 -25 -9
-52 -18 -60 -20 -80 -17 -376 -152 -496 -226 -36 -21 -68 -39 -73 -39 -5 0
-11 -3 -13 -7 -1 -5 -30 -26 -63 -48 -73 -48 -234 -174 -294 -229 -127 -119
-193 -191 -334 -366 -36 -45 -107 -150 -107 -158 0 -6 -4 -12 -8 -14 -14 -5
-104 -164 -160 -281 -29 -60 -52 -110 -52 -111 0 -2 -8 -21 -17 -42 -9 -22
-18 -43 -19 -49 -2 -5 -18 -53 -37 -105 -29 -82 -46 -138 -63 -212 -40 -174
-53 -250 -69 -438 -6 -64 -6 -337 -1 -395 2 -22 7 -71 11 -108 4 -38 8 -78 11
-90 2 -12 7 -38 10 -57 3 -19 7 -42 9 -50 2 -8 7 -31 10 -50 3 -19 15 -69 26
-110 11 -41 21 -82 24 -90 45 -174 197 -514 286 -642 11 -14 19 -31 19 -37 0
-6 3 -11 8 -11 4 0 16 -16 26 -35 11 -19 23 -35 28 -35 4 0 8 -6 8 -13 0 -40
355 -431 474 -522 21 -17 44 -35 50 -40 6 -6 27 -22 46 -35 19 -13 37 -27 40
-30 8 -10 188 -130 196 -130 3 0 18 -9 33 -19 30 -22 264 -141 276 -141 4 0
26 -9 49 -19 60 -28 171 -70 199 -75 14 -2 34 -9 44 -14 10 -6 20 -10 23 -10
3 0 25 -6 50 -13 25 -6 52 -13 60 -15 8 -1 26 -5 40 -8 37 -9 66 -15 98 -21
15 -3 38 -8 52 -11 14 -3 43 -8 65 -10 22 -2 56 -6 75 -9 81 -13 331 -21 370
-12 125 30 204 131 204 262 0 82 -25 140 -83 193 -63 58 -94 66 -296 77 -60 3
-123 8 -140 10 -47 6 -94 13 -123 19 -15 3 -38 7 -52 10 -52 8 -218 56 -300
86 -128 46 -376 171 -424 213 -11 9 -24 17 -28 17 -5 0 -14 5 -21 10 -7 6 -39
31 -72 56 -149 112 -330 290 -404 397 -8 12 -21 28 -28 35 -7 7 -20 26 -30 42
-9 17 -21 30 -25 30 -4 0 -8 4 -8 10 0 5 -21 42 -46 82 -55 85 -153 287 -183
378 -12 36 -26 74 -31 85 -7 17 -19 65 -56 220 -4 17 -8 38 -9 48 -2 9 -3 18
-4 20 -2 1 -4 18 -6 37 -2 19 -8 67 -13 105 -15 107 -7 441 13 535 2 14 7 41
10 60 4 19 11 55 16 80 6 25 12 52 14 61 8 37 47 166 59 194 8 17 19 48 26 69
13 40 123 262 163 328 36 61 143 209 189 263 46 53 193 202 246 247 55 48 206
159 237 176 17 8 45 26 63 40 17 13 32 21 32 17 0 -5 8 -1 18 7 23 19 207 108
224 108 8 0 18 4 24 9 9 8 152 60 183 66 9 2 17 4 19 5 2 3 -5 1 112 28 150
34 236 45 342 46 43 1 78 3 78 6 0 6 131 4 220 -4 116 -10 144 -14 245 -35 85
-18 120 -26 190 -44 23 -7 91 -29 110 -37 11 -4 52 -20 90 -35 88 -35 268
-125 277 -139 4 -6 8 -7 8 -2 0 5 10 1 23 -10 12 -11 34 -26 50 -34 15 -7 27
-17 27 -22 0 -4 4 -8 9 -8 6 0 33 -17 60 -37 l51 -38 -187 -187 c-104 -103
-192 -188 -196 -188 -5 0 -23 10 -40 23 -35 24 -64 43 -87 53 -8 4 -28 16 -43
27 -15 10 -33 20 -40 21 -7 2 -39 15 -72 31 -33 15 -62 29 -65 30 -141 44
-211 65 -235 69 -16 4 -41 9 -55 11 -14 3 -45 8 -70 11 -25 3 -56 7 -70 10
-32 5 -257 6 -290 0 -14 -2 -50 -7 -80 -11 -84 -11 -104 -14 -180 -35 -25 -7
-53 -14 -62 -15 -9 -2 -26 -9 -37 -15 -12 -6 -21 -9 -21 -6 0 5 -47 -13 -120
-47 -25 -11 -51 -22 -58 -23 -8 -1 -21 -9 -30 -16 -10 -8 -30 -20 -47 -28 -16
-8 -32 -17 -35 -20 -3 -3 -22 -14 -43 -25 -21 -11 -45 -28 -54 -37 -9 -10 -22
-18 -29 -18 -7 0 -14 -3 -16 -7 -1 -5 -25 -26 -53 -48 -57 -45 -225 -211 -225
-223 0 -4 -8 -15 -17 -24 -33 -31 -123 -160 -123 -177 0 -5 -4 -11 -8 -13 -17
-7 -134 -267 -147 -328 -1 -3 -7 -25 -15 -50 -15 -52 -16 -53 -24 -100 -3 -19
-8 -46 -11 -60 -3 -14 -8 -41 -11 -60 -8 -51 -13 -340 -5 -340 3 0 7 -29 8
-64 2 -35 10 -92 18 -127 9 -35 18 -75 21 -89 5 -23 36 -119 54 -165 24 -61
94 -203 125 -250 19 -31 35 -60 35 -65 0 -6 5 -10 10 -10 6 0 14 -8 17 -17 8
-23 90 -123 160 -195 60 -63 133 -98 202 -98 65 0 141 31 186 75 60 58 80 106
80 190 0 87 -23 136 -101 220 -31 33 -68 78 -83 100 -14 22 -29 42 -32 45 -22
17 -127 252 -135 300 -1 8 -7 33 -13 56 -23 90 -30 254 -16 364 12 92 63 266
87 296 5 7 11 21 13 32 2 12 12 34 23 49 11 15 38 56 60 90 51 76 129 162 202
219 30 24 60 48 65 52 47 37 232 128 280 137 11 2 20 4 20 5 0 2 18 7 100 26
121 28 397 20 475 -13 8 -3 24 -8 35 -10 11 -2 27 -6 35 -10 8 -3 17 -7 20 -8
49 -17 168 -73 173 -82 3 -5 -83 -98 -191 -206 l-197 -196 -40 5 c-58 7 -133
8 -186 1 -234 -32 -431 -243 -445 -477 -2 -36 -4 -67 -5 -70 -1 -3 -1 -9 0
-13 1 -4 4 -24 7 -45 19 -133 91 -254 204 -343 119 -94 297 -132 440 -95 30 8
58 12 61 10 4 -2 9 -1 11 3 1 5 28 21 59 36 118 59 210 168 255 304 28 85 36
190 20 260 l-9 42 961 962 962 962 28 -29 c54 -55 252 -331 252 -352 0 -4 8
-17 18 -28 17 -20 31 -46 114 -204 63 -120 140 -306 183 -440 21 -63 40 -122
43 -130 6 -17 11 -37 17 -65 2 -11 9 -40 15 -65 7 -25 13 -53 15 -63 2 -10 6
-26 9 -35 3 -9 8 -37 11 -62 4 -24 8 -47 10 -50 2 -3 6 -34 10 -70 4 -36 8
-67 10 -70 25 -44 26 -714 0 -810 -4 -15 -12 -66 -20 -125 -7 -47 -25 -130
-60 -280 -9 -40 -47 -162 -67 -215 -11 -30 -21 -59 -23 -65 -15 -64 -202 -469
-223 -485 -4 -3 -16 -23 -27 -44 -11 -22 -29 -51 -40 -65 -11 -13 -20 -30 -21
-36 -1 -7 -9 -21 -17 -31 -9 -11 -46 -61 -83 -113 -37 -52 -74 -103 -83 -114
-9 -10 -24 -28 -34 -40 -153 -185 -322 -350 -516 -502 -46 -36 -93 -71 -104
-77 -20 -10 -31 -18 -60 -44 -7 -5 -28 -19 -47 -30 -19 -10 -43 -27 -54 -36
-11 -10 -24 -18 -29 -18 -5 0 -21 -9 -36 -19 -41 -30 -246 -135 -341 -176 -47
-20 -94 -40 -105 -45 -32 -14 -247 -88 -280 -96 -5 -2 -63 -16 -127 -33 -64
-17 -159 -37 -210 -46 -51 -9 -104 -18 -118 -20 -33 -6 -145 -17 -196 -19 -22
-2 -44 -5 -50 -7 -12 -7 -371 -3 -454 5 -115 10 -189 19 -255 30 -11 2 -38 7
-59 11 -35 6 -137 28 -191 40 -11 3 -31 8 -45 11 -38 8 -55 12 -55 14 0 1 -7
3 -16 5 -8 1 -78 24 -155 50 -178 61 -377 148 -469 204 -22 13 -40 23 -40 22
0 -11 -298 177 -303 190 -2 5 -8 9 -13 9 -10 0 -167 121 -234 180 -133 119
-166 150 -245 236 -91 99 -122 135 -187 219 -35 44 -67 85 -73 92 -5 7 -10 16
-10 22 0 5 -4 11 -8 13 -12 4 -92 125 -92 137 0 6 -4 11 -9 11 -5 0 -13 10
-17 22 -3 12 -11 26 -16 32 -13 16 -77 126 -73 126 2 0 -11 26 -28 58 -18 31
-40 73 -49 92 -32 71 -76 176 -83 200 -4 14 -11 30 -15 35 -3 6 -22 57 -40
115 -18 58 -35 112 -38 120 -8 25 -15 48 -33 120 -16 66 -26 112 -53 255 -8
40 -21 158 -32 280 -8 90 -12 455 -4 470 2 6 5 19 6 30 8 93 26 230 38 290 2
11 7 40 12 65 4 25 8 47 9 50 2 5 18 81 20 90 1 3 4 16 8 30 4 14 13 43 18 65
24 87 104 320 111 323 4 2 8 10 8 18 0 27 111 261 188 394 57 99 154 250 175
272 7 7 24 31 39 53 15 22 38 52 50 67 13 15 33 40 45 55 12 15 38 45 57 67
20 21 36 40 36 42 0 6 199 202 254 249 32 28 76 67 99 87 23 21 45 38 48 38 3
0 19 11 35 25 30 27 248 176 274 188 8 4 38 21 65 37 148 89 433 216 605 270
41 13 84 27 95 31 11 5 31 11 45 13 14 2 59 13 100 24 41 11 95 24 120 28 25
4 47 8 50 9 19 5 98 18 124 21 17 2 45 6 61 8 17 3 71 8 120 11 50 4 92 8 94
11 5 5 441 -4 476 -10z"/>
</g>
</svg>
